<?xml version="1.0" encoding="UTF-8"?>
<svg version="1.1" xmlns="http://www.w3.org/2000/svg" width="512" height="512">
<path d="M0 0 C2.38705712 1.75137343 4.87014271 3.24276551 7.40625 4.76953125 C28.15967144 17.9947508 43.17196214 37.70074575 49.4453125 61.61328125 C49.97079495 63.77653846 49.97079495 63.77653846 52.15625 64.58203125 C52.218125 63.50953125 52.28 62.43703125 52.34375 61.33203125 C53.12467576 55.29568619 55.62394103 50.06765341 58.15625 44.58203125 C58.44419434 43.9463623 58.73213867 43.31069336 59.02880859 42.65576172 C69.57799051 19.55948916 87.67643386 3.82533996 111.25 -5.36328125 C121.27286274 -9.00061047 121.27286274 -9.00061047 126.15625 -10.41796875 C127.07929932 -10.68613403 127.07929932 -10.68613403 128.02099609 -10.9597168 C151.55865423 -17.03632555 179.60878441 -12.65933319 200.43408203 -0.47509766 C204.90193065 2.26742921 209.06053681 5.31772739 213.15625 8.58203125 C213.87941406 9.10667969 214.60257812 9.63132813 215.34765625 10.171875 C218.65653671 12.69197184 219.97523766 14.04852121 221.34375 18.08203125 C220.94667803 25.49404135 215.1529176 29.81794394 210.1796875 34.82421875 C208.15625 36.58203125 208.15625 36.58203125 206.15625 36.58203125 C205.8675 37.20078125 205.57875 37.81953125 205.28125 38.45703125 C203.85659733 41.14804185 202.79079771 42.35288902 199.90625 43.39453125 C194.44879398 43.76663052 190.8444712 40.39091932 186.78125 37.14453125 C178.44349136 30.50235042 169.81772453 27.53002782 159.28125 26.45703125 C158.51683594 26.37066406 157.75242187 26.28429687 156.96484375 26.1953125 C139.57310848 24.33507596 125.75339626 28.98575917 111.15625 38.58203125 C109.8259375 39.44828125 109.8259375 39.44828125 108.46875 40.33203125 C104.72442647 43.97515684 101.99092749 48.21265576 99.15625 52.58203125 C98.51816406 53.53851563 97.88007813 54.495 97.22265625 55.48046875 C96.60261719 56.46273437 95.98257813 57.445 95.34375 58.45703125 C94.78042969 59.34132813 94.21710938 60.225625 93.63671875 61.13671875 C92.20040644 64.47927142 91.62441415 67.22322539 91.0637207 70.79736328 C90.89145462 71.88002472 90.71918854 72.96268616 90.54170227 74.07815552 C90.41450302 74.90443451 90.28730377 75.7307135 90.15625 76.58203125 C91.30892632 76.57650049 91.30892632 76.57650049 92.48488903 76.570858 C111.17985299 76.48253462 129.87477532 76.41633512 148.56990337 76.37478256 C157.61072468 76.35415412 166.65140674 76.32602818 175.69213867 76.28027344 C183.57171481 76.24041425 191.4511901 76.21460049 199.33086425 76.20567727 C203.50344023 76.20046094 207.67572773 76.18819501 211.84821129 76.15911102 C215.77574665 76.13195629 219.70287475 76.12358627 223.63049507 76.12960052 C225.07165617 76.1285003 226.51283092 76.1205464 227.95391083 76.10520935 C229.92263934 76.08528485 231.89158649 76.09248218 233.86039734 76.10101318 C235.51271126 76.09548243 235.51271126 76.09548243 237.19840527 76.08983994 C240.85334451 76.69802918 242.52348912 78.02676899 245.15625 80.58203125 C251.13003622 95.26645248 245.18280133 120.57332634 240.15625 134.58203125 C237.76089025 139.83661408 234.76255134 144.09116543 231.15625 148.58203125 C229.94243044 150.30735119 228.73427316 152.03666597 227.53125 153.76953125 C220.16156442 163.8722552 212.26155271 170.85417488 201.15625 176.58203125 C200.57230469 176.8877002 199.98835938 177.19336914 199.38671875 177.50830078 C175.76628597 189.84327518 151.04979384 191.389431 125.15625 185.58203125 C123.88910156 185.30359375 122.62195313 185.02515625 121.31640625 184.73828125 C116.30185626 183.45690706 111.59432926 181.48937152 106.84375 179.45703125 C105.45760498 178.86523071 105.45760498 178.86523071 104.04345703 178.26147461 C96.96661114 175.142854 91.1169922 171.53348443 85.15625 166.58203125 C84.16625 165.92203125 83.17625 165.26203125 82.15625 164.58203125 C82.15625 163.92203125 82.15625 163.26203125 82.15625 162.58203125 C81.59421875 162.36160156 81.0321875 162.14117187 80.453125 161.9140625 C67.6019321 154.46124485 57.25388151 133.31949431 53.34375 119.765625 C52.88233805 117.71810946 52.50698708 115.65138003 52.15625 113.58203125 C50.83625 113.58203125 49.51625 113.58203125 48.15625 113.58203125 C47.970625 114.71125 47.970625 114.71125 47.78125 115.86328125 C43.64758586 137.15165157 29.6897908 157.83389851 12.15625 170.58203125 C8.45305806 172.92980038 4.60499631 174.94767716 0.6640625 176.86328125 C-2.88151451 178.54468126 -2.88151451 178.54468126 -6.2890625 180.61328125 C-26.90034787 192.53170508 -56.45572493 190.96777928 -78.84375 185.58203125 C-79.53114258 185.42105957 -80.21853516 185.26008789 -80.92675781 185.09423828 C-96.1772824 181.36927439 -107.61465677 173.47813654 -118.84375 162.58203125 C-119.69839844 161.81246094 -120.55304688 161.04289063 -121.43359375 160.25 C-128.04656921 154.09446345 -131.92362723 147.66248039 -135.84375 139.58203125 C-136.3903125 138.59074219 -136.936875 137.59945312 -137.5 136.578125 C-144.17366259 124.29400586 -145.34276856 111.82004056 -145.21875 98.01953125 C-145.22947531 96.68033022 -145.24119093 95.34113674 -145.25390625 94.00195312 C-145.25003906 92.72771484 -145.24617188 91.45347656 -145.2421875 90.140625 C-145.23880371 88.99907959 -145.23541992 87.85753418 -145.23193359 86.68139648 C-144.80110027 83.24150397 -143.899671 81.34783159 -141.84375 78.58203125 C-139.13813159 77.22922205 -137.01508888 77.44175999 -133.98458862 77.42381287 C-132.73654449 77.41402405 -131.48850037 77.40423523 -130.20263672 77.39414978 C-128.8120121 77.38824521 -127.42138708 77.38243479 -126.03076172 77.37670898 C-124.57235433 77.36713302 -123.11394974 77.35712311 -121.6555481 77.34671021 C-117.68886871 77.31962453 -113.72217739 77.29863484 -109.75545645 77.27870822 C-105.61275641 77.25687122 -101.47009334 77.22947137 -97.3274231 77.20265198 C-89.47933155 77.15269412 -81.63121952 77.10776679 -73.78308785 77.06462961 C-64.84969251 77.01528364 -55.91633426 76.96035574 -46.98297477 76.90495002 C-28.60326759 76.7910825 -10.22352544 76.68425387 8.15625 76.58203125 C10.19533448 70.46477781 8.14788192 63.93147722 5.70703125 58.1484375 C2.65130586 52.20865668 -0.49441411 47.24793823 -5.55859375 42.8515625 C-6.19474609 42.22314453 -6.19474609 42.22314453 -6.84375 41.58203125 C-6.84375 40.92203125 -6.84375 40.26203125 -6.84375 39.58203125 C-7.359375 39.35515625 -7.875 39.12828125 -8.40625 38.89453125 C-10.84375 37.58203125 -10.84375 37.58203125 -13.59375 35.26953125 C-27.88214516 25.28844856 -48.0693842 25.45271881 -64.63916016 28.01416016 C-74.04838329 29.98549418 -82.15420058 33.56241746 -89.46875 39.83203125 C-92.37974111 41.97697207 -94.23520312 42.50685319 -97.84375 42.58203125 C-102.07954808 40.46056071 -105.37089759 37.43835108 -108.78125 34.20703125 C-109.78906599 33.26033442 -110.79817914 32.31501656 -111.80859375 31.37109375 C-112.5504895 30.67487915 -112.5504895 30.67487915 -113.30737305 29.96459961 C-114.87936061 28.54998567 -116.51205901 27.24723135 -118.171875 25.9375 C-120.84375 23.58203125 -120.84375 23.58203125 -121.65625 20.26953125 C-119.96867506 12.61053731 -114.3372671 8.66523356 -107.96875 4.58203125 C-97.38015845 -1.60991329 -85.90867482 -7.8130418 -73.84375 -10.41796875 C-72.9465625 -10.62035156 -72.049375 -10.82273438 -71.125 -11.03125 C-48.93185744 -15.23536335 -18.87584678 -13.91037216 0 0 Z M-103.84375 111.58203125 C-105.16152134 117.4650472 -103.76880482 120.40571472 -100.84375 125.58203125 C-96.12837111 133.47617883 -96.12837111 133.47617883 -88.84375 138.58203125 C-88.84375 139.24203125 -88.84375 139.90203125 -88.84375 140.58203125 C-76.97482661 151.01952669 -58.16322427 151.59023502 -43.22607422 150.76220703 C-26.01817963 149.46076963 -12.59971141 143.06199722 -0.73828125 130.3203125 C3.09222798 125.64039397 6.54661069 120.47615168 8.15625 114.58203125 C7.66125 113.09703125 7.66125 113.09703125 7.15625 111.58203125 C-29.87201823 109.98062466 -66.80454346 110.70270674 -103.84375 111.58203125 Z M121.46875 111.08203125 C118.89388453 111.13043892 116.31901474 111.17861691 113.74414062 111.2265625 C107.54812499 111.34242107 101.35216764 111.46105085 95.15625 111.58203125 C94.12524597 116.11383255 94.00122278 119.39395949 96.15625 123.58203125 C106.41064638 137.35352572 119.81271187 147.06826813 136.75390625 150.078125 C156.65132596 152.69876077 173.56290902 150.3025957 190.4375 139.0625 C194.89820876 135.56650801 197.98634043 131.26221324 201.09375 126.58203125 C201.48401367 126.0005835 201.87427734 125.41913574 202.27636719 124.82006836 C204.82221636 120.77816375 205.87663425 117.34144819 206.15625 112.58203125 C203.60344679 110.02922804 196.70958263 111.13597239 193.28125 111.01953125 C192.22421875 110.97634766 191.1671875 110.93316406 190.078125 110.88867188 C167.22358872 110.06496719 144.32545564 110.63559366 121.46875 111.08203125 Z " fill="#348F4B" transform="translate(204.84375,167.41796875)"/>
<path d="M0 0 C4.51513768 1.41904327 6.79121152 3.56734255 10 7 C10.60972656 7.54398438 11.21945313 8.08796875 11.84765625 8.6484375 C17.1417036 13.48346341 20.26500264 18.64765374 23.45703125 25.046875 C24.79729005 27.61202855 26.26049262 29.70723956 28 32 C29.04976964 35.14930893 29.10131595 37.38814456 29.0625 40.6875 C29.05347656 41.68136719 29.04445312 42.67523438 29.03515625 43.69921875 C29.01775391 44.83810547 29.01775391 44.83810547 29 46 C-2.09532907 47.12301584 -33.17994403 47.12484339 -64.29210114 47.07202661 C-71.1512967 47.06059594 -78.01049358 47.05528805 -84.86969638 47.05032361 C-98.91314114 47.04003098 -112.95656987 47.02258743 -127 47 C-126.69972496 50.94305707 -126.39332984 54.8856169 -126.0859375 58.828125 C-126.00206787 59.93043457 -125.91819824 61.03274414 -125.83178711 62.16845703 C-124.43371255 79.98242107 -121.88963559 96.6001214 -114.63671875 113.07421875 C-114 115 -114 115 -115 117 C-117.02737504 113.34784922 -119.01587916 109.67579757 -121 106 C-121.53753906 105.03964844 -122.07507813 104.07929688 -122.62890625 103.08984375 C-129.26999049 90.72311295 -130.49965044 78.30832419 -130.375 64.4375 C-130.38572531 63.09829897 -130.39744093 61.75910549 -130.41015625 60.41992188 C-130.40628906 59.14568359 -130.40242188 57.87144531 -130.3984375 56.55859375 C-130.39505371 55.41704834 -130.39166992 54.27550293 -130.38818359 53.09936523 C-129.95735027 49.65947272 -129.055921 47.76580034 -127 45 C-124.29438159 43.6471908 -122.17133888 43.85972874 -119.14083862 43.84178162 C-117.89279449 43.8319928 -116.64475037 43.82220398 -115.35888672 43.81211853 C-113.9682621 43.80621396 -112.57763708 43.80040354 -111.18701172 43.79467773 C-109.72860433 43.78510177 -108.27019974 43.77509186 -106.8117981 43.76467896 C-102.84511871 43.73759328 -98.87842739 43.71660359 -94.91170645 43.69667697 C-90.76900641 43.67483997 -86.62634334 43.64744012 -82.4836731 43.62062073 C-74.63558155 43.57066287 -66.78746952 43.52573554 -58.93933785 43.48259836 C-50.00594251 43.43325239 -41.07258426 43.37832449 -32.13922477 43.32291877 C-13.75951759 43.20905125 4.62022456 43.10222262 23 43 C25.03908448 36.88274656 22.99163192 30.34944597 20.55078125 24.56640625 C17.49505586 18.62662543 14.34933589 13.66590698 9.28515625 9.26953125 C8.64900391 8.64111328 8.64900391 8.64111328 8 8 C8 7.34 8 6.68 8 6 C7.4225 5.7525 6.845 5.505 6.25 5.25 C3.6997003 3.83316683 1.98214299 2.12372463 0 0 Z " fill="#9DC6A7" transform="translate(190,201)"/>
<path d="M0 0 C0.66 0.33 1.32 0.66 2 1 C1.154375 1.61875 0.30875 2.2375 -0.5625 2.875 C-4.97498483 6.57278658 -7.90409224 11.19531199 -11 16 C-11.63679688 16.95519531 -12.27359375 17.91039062 -12.9296875 18.89453125 C-13.55101562 19.87808594 -14.17234375 20.86164063 -14.8125 21.875 C-15.37582031 22.75929687 -15.93914062 23.64359375 -16.51953125 24.5546875 C-17.95584356 27.89724017 -18.53183585 30.64119414 -19.0925293 34.21533203 C-19.26479538 35.29799347 -19.43706146 36.38065491 -19.61454773 37.49612427 C-19.74174698 38.32240326 -19.86894623 39.14868225 -20 40 C-19.22970553 39.99723462 -18.45941107 39.99446924 -17.66577435 39.99162006 C1.06188678 39.92541806 19.78952462 39.87574763 38.51727772 39.84456348 C47.57381704 39.82908292 56.63027833 39.80797074 65.68676758 39.77368164 C73.57877598 39.74381562 81.4707279 39.72443366 89.36279124 39.71773452 C93.54307241 39.71381749 97.72319195 39.70458741 101.9034214 39.68280983 C105.83582812 39.66248877 109.76800619 39.65615725 113.70046043 39.66067696 C115.14567684 39.65984978 116.59090068 39.65385796 118.03607178 39.64238358 C120.00554409 39.62750982 121.97513834 39.632822 123.94465637 39.63923645 C125.04804257 39.63647107 126.15142878 39.63370569 127.28825092 39.63085651 C130 40 130 40 133 43 C81.52 43 30.04 43 -23 43 C-23 34.86473106 -22.99898591 31.45105631 -19.375 24.9375 C-19.01035645 24.24922119 -18.64571289 23.56094238 -18.27001953 22.85180664 C-7.28386003 2.42795334 -7.28386003 2.42795334 0 0 Z " fill="#C1DBC8" transform="translate(315,204)"/>
<path d="M0 0 C0.495 0.99 0.495 0.99 1 2 C-1.30403603 5.35450839 -3.64256162 8.68281398 -6 12 C-6.52851563 12.7528125 -7.05703125 13.505625 -7.6015625 14.28125 C-15.46207488 24.9684491 -24.63420385 32.43909361 -36.45703125 38.24609375 C-38.88209575 39.44659426 -41.13924533 40.65492588 -43.44921875 42.03515625 C-64.19424091 54.02233173 -93.47924756 52.17336568 -116 47 C-118.34619216 46.36917623 -120.6714656 45.69463413 -123 45 C-123 44.67 -123 44.34 -123 44 C-120.77057252 44.14179038 -118.54146372 44.28859698 -116.3125 44.4375 C-115.07113281 44.51871094 -113.82976562 44.59992188 -112.55078125 44.68359375 C-109 45 -109 45 -106.75146484 45.50927734 C-103.30210616 46.12446909 -99.91727156 46.16230927 -96.42578125 46.16796875 C-95.33997017 46.17296135 -95.33997017 46.17296135 -94.23222351 46.17805481 C-92.70340608 46.18310211 -91.17457771 46.18546382 -89.64575195 46.18530273 C-87.33721122 46.18747673 -85.02915868 46.2056209 -82.72070312 46.22460938 C-71.57794698 46.26950673 -62.03146074 45.11815563 -51.6875 40.875 C-43.66193119 37.58520535 -43.66193119 37.58520535 -39 38 C-38.67 37.01 -38.34 36.02 -38 35 C-36.04905984 34.239464 -34.09433641 33.48641448 -32.1171875 32.796875 C-26.37889156 30.63707358 -22.87940959 26.90860524 -19.0546875 22.3359375 C-16.6490264 19.60098439 -14.05302626 17.09266083 -11.4375 14.5625 C-6.8851828 10.07288689 -3.22604914 5.51286879 0 0 Z " fill="#BACFBF" transform="translate(242,306)"/>
<path d="M0 0 C38.94 0 77.88 0 118 0 C114.69046769 14.89289541 105.66259369 25.72000095 93.3125 34.5625 C89.49903569 36.97136091 86.48675799 37.80907413 82 38 C84.52781699 35.84392081 86.83744646 34.07881384 89.8359375 32.625 C101.32714501 26.72334281 109.72580689 17.11859457 114 5 C114 4.34 114 3.68 114 3 C90.99395462 1.94635963 68.02207937 1.87525102 44.99664307 1.93133545 C40.24190736 1.94176952 35.48716586 1.94617499 30.73242188 1.95117188 C21.48826669 1.96173311 12.24413623 1.97868155 3 2 C3.15339844 3.258125 3.30679688 4.51625 3.46484375 5.8125 C3.55113037 6.52019531 3.63741699 7.22789062 3.72631836 7.95703125 C4.04420973 10.3300152 4.48845111 12.6614908 5 15 C1.28836791 12.3006312 0.70152875 8.2999586 0 4 C0 2.68 0 1.36 0 0 Z " fill="#F6F7F7" transform="translate(98,277)"/>
<path d="M0 0 C38.94 0 77.88 0 118 0 C117 9 117 9 116 12 C115.34 12 114.68 12 114 12 C114.33 9.03 114.66 6.06 115 3 C111.06287481 2.82370381 107.12527464 2.66108089 103.1875 2.5 C102.12595703 2.45230469 101.06441406 2.40460938 99.97070312 2.35546875 C77.10322148 1.44337547 54.18438776 2.05326587 31.3125 2.5 C28.73763453 2.54840767 26.16276474 2.59658566 23.58789062 2.64453125 C17.39187429 2.76038983 11.19592379 2.8792981 5 3 C5.33 6.63 5.66 10.26 6 14 C2.51038019 10.97566283 1.11867051 8.47468202 0 4 C0 2.68 0 1.36 0 0 Z " fill="#DFE7E1" transform="translate(295,277)"/>
<path d="M0 0 C1 3 1 3 -0.01171875 5.3828125 C-7.97571568 18.41480748 -21.19497102 26.63645868 -35.86401367 30.62719727 C-40.77395997 31.48415097 -45.78232712 31.28394765 -50.75 31.25 C-52.42449219 31.26160156 -52.42449219 31.26160156 -54.1328125 31.2734375 C-71.12747074 31.23382291 -84.44108468 27.13124017 -96.8671875 15.15625 C-97.57101562 14.4446875 -98.27484375 13.733125 -99 13 C-99.96292969 12.05640625 -99.96292969 12.05640625 -100.9453125 11.09375 C-102.31290887 9.74523637 -103.65966202 8.37561003 -105 7 C-104.67 6.34 -104.34 5.68 -104 5 C-103.46632813 5.56847656 -102.93265625 6.13695312 -102.3828125 6.72265625 C-97.02120724 12.27906032 -91.53996356 16.89376059 -85 21 C-84.37867188 21.40089844 -83.75734375 21.80179687 -83.1171875 22.21484375 C-69.48349533 30.03503514 -48.48432463 30.15041614 -33.4375 26.9375 C-17.72125141 22.12269552 -8.42400294 13.52216576 0 0 Z " fill="#F1F6F2" transform="translate(408,289)"/>
<path d="M0 0 C4.51513768 1.41904327 6.79121152 3.56734255 10 7 C10.60972656 7.54398438 11.21945313 8.08796875 11.84765625 8.6484375 C17.1417036 13.48346341 20.26500264 18.64765374 23.45703125 25.046875 C24.79729005 27.61202855 26.26049262 29.70723956 28 32 C29.53129643 36.59388928 29.05649912 41.19757492 29 46 C18.8605888 46.07167069 8.75645591 45.85536416 -1.375 45.5 C-2.80468024 45.45160782 -4.23436774 45.40342976 -5.6640625 45.35546875 C-9.10946183 45.23943423 -12.55475529 45.1205483 -16 45 C-16 44.67 -16 44.34 -16 44 C-3.13 43.67 9.74 43.34 23 43 C25.03908448 36.88274656 22.99163192 30.34944597 20.55078125 24.56640625 C17.49505586 18.62662543 14.34933589 13.66590698 9.28515625 9.26953125 C8.86105469 8.85058594 8.43695313 8.43164062 8 8 C8 7.34 8 6.68 8 6 C7.4225 5.7525 6.845 5.505 6.25 5.25 C3.6997003 3.83316683 1.98214299 2.12372463 0 0 Z " fill="#B8D3BF" transform="translate(190,201)"/>
<path d="M0 0 C3.55814861 3.42491397 6.45840254 7.13118767 9.4140625 11.07421875 C10.86501713 13.10173293 10.86501713 13.10173293 13 14 C13 14.66 13 15.32 13 16 C33.68544091 26.52991901 54.5366085 26.5138266 77 23 C76.505 24.485 76.505 24.485 76 26 C57.14566719 30.17723493 35.38720898 31.00834975 18.171875 21.42578125 C10.60053124 16.56334641 4.30069848 9.91749383 0 2 C0 1.34 0 0.68 0 0 Z " fill="#EAF1EB" transform="translate(103,292)"/>
<path d="M0 0 C0.77403168 0.00141495 1.54806335 0.0028299 2.34555054 0.00428772 C4.82155192 0.00989222 7.29746338 0.02244542 9.7734375 0.03515625 C11.45051953 0.04017067 13.12760297 0.04473368 14.8046875 0.04882812 C18.91930556 0.0598631 23.03385628 0.07713071 27.1484375 0.09765625 C26.8184375 0.75765625 26.4884375 1.41765625 26.1484375 2.09765625 C18.30055226 3.68188293 9.92828046 3.22034945 1.9609375 3.16015625 C-3.88625 3.12921875 -3.88625 3.12921875 -9.8515625 3.09765625 C-9.8515625 17.61765625 -9.8515625 32.13765625 -9.8515625 47.09765625 C-13.63774421 39.52529283 -13.0678859 31.33392787 -13.09179688 23.02685547 C-13.10157214 20.97062756 -13.13269568 18.91537225 -13.1640625 16.859375 C-13.16921875 15.55355469 -13.174375 14.24773437 -13.1796875 12.90234375 C-13.1890332 11.71624512 -13.19837891 10.53014648 -13.20800781 9.30810547 C-12.81663875 5.78310333 -11.9667897 3.91516977 -9.8515625 1.09765625 C-6.73202122 -0.46211439 -3.42196866 -0.02338501 0 0 Z " fill="#CDE2D2" transform="translate(72.8515625,244.90234375)"/>
<path d="M0 0 C4.64615403 -0.14987594 8.61089063 -0.10619727 13.125 1 C21.33500423 2.71886955 29.78102798 2.20926649 38.125 2.125 C39.86197401 2.11495032 41.59895364 2.10582798 43.3359375 2.09765625 C47.5574325 2.07579974 51.77865307 2.04137951 56 2 C53.33279642 5.04969171 51.31023203 5.49957768 47.26123047 5.86523438 C30.83758376 6.84405677 15.90385262 5.06431789 0 1 C0 0.67 0 0.34 0 0 Z " fill="#AEC9B4" transform="translate(322,350)"/>
<path d="M0 0 C1.65 0 3.3 0 5 0 C5.21914063 0.85980469 5.43828125 1.71960938 5.6640625 2.60546875 C7.75066156 10.38356362 10.26929177 17.22975061 13.828125 24.453125 C15 27 15 27 15 29 C15.66 29 16.32 29 17 29 C17.23332031 29.51046875 17.46664063 30.0209375 17.70703125 30.546875 C23.10173616 41.2981597 32.4704846 49.69044345 41 58 C37.47967572 58 36.5614657 57.29648649 34 55 C34 54.34 34 53.68 34 53 C33.43796875 52.77957031 32.8759375 52.55914062 32.296875 52.33203125 C19.4456821 44.8792136 9.09763151 23.73746306 5.1875 10.18359375 C4.72608805 8.13607821 4.35073708 6.06934878 4 4 C2.68 4 1.36 4 0 4 C-0.33 4.66 -0.66 5.32 -1 6 C-0.67 4.02 -0.34 2.04 0 0 Z " fill="#E9F3EB" transform="translate(253,277)"/>
<path d="M0 0 C1.26908203 -0.02900391 2.53816406 -0.05800781 3.84570312 -0.08789062 C12.32282776 -0.14443379 19.2185099 1.07821351 27.0625 4.3125 C27.0625 4.9725 27.0625 5.6325 27.0625 6.3125 C27.949375 6.539375 28.83625 6.76625 29.75 7 C33.49630532 8.48438513 35.39979434 10.33653485 38.0625 13.3125 C33.90214125 11.83624367 30.23382006 9.7564946 26.44140625 7.53125 C20.842842 4.66302004 15.35678412 3.81575765 9.1875 3.1875 C8.04087891 3.05794922 8.04087891 3.05794922 6.87109375 2.92578125 C0.23157759 2.21561229 -6.28884637 1.9814183 -12.9375 2.8125 C-13.700625 2.9053125 -14.46375 2.998125 -15.25 3.09375 C-15.806875 3.1659375 -16.36375 3.238125 -16.9375 3.3125 C-16.9375 2.6525 -16.9375 1.9925 -16.9375 1.3125 C-11.51046363 -0.49651212 -5.67908406 0.04210888 0 0 Z " fill="#C3D5C7" transform="translate(354.9375,190.6875)"/>
<path d="M0 0 C0.495 0.99 0.495 0.99 1 2 C-1.30403603 5.35450839 -3.64256162 8.68281398 -6 12 C-6.52851563 12.7528125 -7.05703125 13.505625 -7.6015625 14.28125 C-16.14445523 25.89621746 -25.87784254 33.31243767 -39 39 C-38.73046875 37.09375 -38.73046875 37.09375 -38 35 C-36.05655989 34.20944809 -34.10582284 33.43049469 -32.1171875 32.76171875 C-26.35871012 30.68994183 -22.86418754 26.89040643 -19.0546875 22.3359375 C-16.6490264 19.60098439 -14.05302626 17.09266083 -11.4375 14.5625 C-6.8851828 10.07288689 -3.22604914 5.51286879 0 0 Z " fill="#CFDFD3" transform="translate(242,306)"/>
<path d="M0 0 C0.33 0 0.66 0 1 0 C1.90800481 12.48506615 -1.47837847 26.88341904 -9 37 C-11.1875 38.7890625 -11.1875 38.7890625 -13 40 C-12.67 38.68 -12.34 37.36 -12 36 C-11.34 36 -10.68 36 -10 36 C-9.76216797 35.12214844 -9.76216797 35.12214844 -9.51953125 34.2265625 C-7.8443039 28.06246629 -6.14633782 21.90484623 -4.4375 15.75 C-4.22778564 14.99412598 -4.01807129 14.23825195 -3.80200195 13.45947266 C-2.55355684 8.96743605 -1.28631129 4.48134257 0 0 Z " fill="#C4DAC9" transform="translate(449,274)"/>
<path d="M0 0 C0.66 0 1.32 0 2 0 C-2.54036347 12.3708454 -13.22798297 24.06057943 -25 30 C-27.43967004 30.673942 -29.4532739 30.89162868 -32 31 C-29.47218301 28.84392081 -27.16255354 27.07881384 -24.1640625 25.625 C-13.01131734 19.89717039 -5.83355589 10.76964164 0 0 Z " fill="#EFF3F0" transform="translate(212,284)"/>
<path d="M0 0 C2.31401653 3.47102479 3.07974194 6.62620906 4.12109375 10.625 C4.81928967 13.05034241 4.81928967 13.05034241 6.58203125 14.49609375 C8 16 8 16 8.328125 18.41015625 C8.30234375 19.28542969 8.2765625 20.16070312 8.25 21.0625 C8.23453125 21.94035156 8.2190625 22.81820312 8.203125 23.72265625 C8 26 8 26 7 28 C6.01 28 5.02 28 4 28 C2.34437228 18.70030388 1.11843262 9.37579682 0 0 Z " fill="#CDDFD1" transform="translate(250,218)"/>
<path d="M0 0 C0.66 0.33 1.32 0.66 2 1 C1.14019531 1.57105469 0.28039062 2.14210937 -0.60546875 2.73046875 C-14.7203501 12.31747969 -25.37025269 22.62525241 -33 38 C-34 35 -34 35 -33.13671875 32.6875 C-26.02615857 19.50133989 -13.96156944 6.26217453 0 0 Z " fill="#EEF5F0" transform="translate(300,170)"/>
<path d="M0 0 C2.22942748 0.14179038 4.45853628 0.28859698 6.6875 0.4375 C7.92886719 0.51871094 9.17023438 0.59992188 10.44921875 0.68359375 C14 1 14 1 16.36328125 1.5 C19.18415186 2.03492065 21.86990287 2.2090338 24.73828125 2.31640625 C25.80498047 2.35830078 26.87167969 2.40019531 27.97070312 2.44335938 C29.07349609 2.48267578 30.17628906 2.52199219 31.3125 2.5625 C32.99569336 2.62727539 32.99569336 2.62727539 34.71289062 2.69335938 C37.47514569 2.79914787 40.2374863 2.90123672 43 3 C43 3.33 43 3.66 43 4 C39.37 4.33 35.74 4.66 32 5 C32 5.33 32 5.66 32 6 C8.83746824 4.97915893 8.83746824 4.97915893 0 0 Z " fill="#B3CBB8" transform="translate(119,350)"/>
<path d="M0 0 C1 3 1 3 -0.01171875 5.3828125 C-6.96040799 16.7533949 -16.73675994 23.19609297 -29 28 C-28 25 -28 25 -25.3046875 23.38671875 C-24.17289062 22.82597656 -23.04109375 22.26523437 -21.875 21.6875 C-11.38257055 16.2370167 -6.19700723 9.94740382 0 0 Z " fill="#EEF4EF" transform="translate(408,289)"/>
<path d="M0 0 C0.66 0.33 1.32 0.66 2 1 C1.154375 1.61875 0.30875 2.2375 -0.5625 2.875 C-9.25530063 10.1598118 -15.11229218 21.93847463 -20 32 C-19.49783101 26.43309803 -18.05705304 22.37947304 -15.375 17.5 C-15.02107178 16.84362549 -14.66714355 16.18725098 -14.30249023 15.51098633 C-11.84472269 11.11307779 -9.17923426 7.52457461 -5.34765625 4.19921875 C-3.85605049 3.02117576 -3.85605049 3.02117576 -3 1 C-2.01 0.67 -1.02 0.34 0 0 Z " fill="#CCDED0" transform="translate(315,204)"/>
<path d="M0 0 C0 0.66 0 1.32 0 2 C-7.24441195 5.0819153 -13.76273185 5.37085802 -21.5625 5.1875 C-22.66658203 5.17396484 -23.77066406 5.16042969 -24.90820312 5.14648438 C-27.60599272 5.11144815 -30.30272636 5.06232591 -33 5 C-32.67 4.34 -32.34 3.68 -32 3 C-31.11646851 2.970271 -31.11646851 2.970271 -30.21508789 2.93994141 C-27.49717649 2.84356723 -24.77991897 2.73435288 -22.0625 2.625 C-21.13630859 2.5940625 -20.21011719 2.563125 -19.25585938 2.53125 C-13.9214665 2.30664398 -8.95585653 1.72462204 -3.77514648 0.41552734 C-2 0 -2 0 0 0 Z " fill="#F7F8F7" transform="translate(379,315)"/>
<path d="M0 0 C0.99 0.33 1.98 0.66 3 1 C-0.11281135 4.72018917 -3.26765301 8.37262722 -6.625 11.875 C-7.17414063 12.44992188 -7.72328125 13.02484375 -8.2890625 13.6171875 C-10.18824496 15.15214319 -11.61466693 15.59376424 -14 16 C-11.32394362 9.54598168 -6.13723456 3.50699118 0 0 Z " fill="#58A26B" transform="translate(293,176)"/>
<path d="M0 0 C1.73662334 3.22515763 2.8905928 6.51329166 4 10 C1.26893489 10.91035504 -0.29893239 11.12215713 -3.10424805 11.11352539 C-4.3351844 11.11341209 -4.3351844 11.11341209 -5.59098816 11.11329651 C-6.9129998 11.10555458 -6.9129998 11.10555458 -8.26171875 11.09765625 C-9.16751175 11.0962413 -10.07330475 11.09482635 -11.00654602 11.09336853 C-13.90023091 11.08777001 -16.79383849 11.07521781 -19.6875 11.0625 C-21.64908742 11.05748481 -23.61067606 11.05292193 -25.57226562 11.04882812 C-30.38154021 11.03780107 -35.190757 11.02053747 -40 11 C-40 10.67 -40 10.34 -40 10 C-27.13 9.67 -14.26 9.34 -1 9 C0.06546953 5.8035914 0.07427838 3.34252724 0 0 Z " fill="#D9E7DB" transform="translate(214,235)"/>
<path d="M0 0 C4.51513768 1.41904327 6.79121152 3.56734255 10 7 C10.93199219 7.83337891 10.93199219 7.83337891 11.8828125 8.68359375 C17.54151181 13.8581838 21.50690741 19.69805519 24 27 C23.55834961 29.17089844 23.55834961 29.17089844 23 31 C22.25556641 29.38931641 22.25556641 29.38931641 21.49609375 27.74609375 C17.8072492 19.96117082 14.5776485 13.75544244 8 8 C8 7.34 8 6.68 8 6 C7.4225 5.7525 6.845 5.505 6.25 5.25 C3.6997003 3.83316683 1.98214299 2.12372463 0 0 Z " fill="#F2F7F3" transform="translate(190,201)"/>
<path d="M0 0 C-1.87292382 2.69232799 -3.11425867 3.02327491 -6.375 3.6875 C-12.22936178 4.23566122 -18.12716204 4.08057247 -24 4 C-23.67 3.34 -23.34 2.68 -23 2 C-20.43745494 1.51616282 -17.96089411 1.15617565 -15.375 0.875 C-14.32505859 0.74544922 -14.32505859 0.74544922 -13.25390625 0.61328125 C-8.80697695 0.09351029 -4.47594771 -0.08223526 0 0 Z " fill="#B9D1C0" transform="translate(378,352)"/>
<path d="M0 0 C0.99 0.33 1.98 0.66 3 1 C-3.88075372 7.10883164 -10.38987906 11.68585287 -19 15 C-18.73046875 13.09375 -18.73046875 13.09375 -18 11 C-16.06165466 10.21152054 -14.11551697 9.43480884 -12.12890625 8.77734375 C-7.23063436 6.98880044 -3.5037038 3.77321948 0 0 Z " fill="#F0F6F2" transform="translate(222,330)"/>
<path d="M0 0 C-1.87383903 0.79441072 -3.74912886 1.58539974 -5.625 2.375 C-7.19121094 3.03628906 -7.19121094 3.03628906 -8.7890625 3.7109375 C-11.82903202 4.93136322 -14.88205905 5.9981391 -18 7 C-16.95920467 3.98169354 -16.06246918 3.03922483 -13.3125 1.3125 C-8.68889601 -0.51949403 -4.79528302 -1.59842767 0 0 Z " fill="#BFD8C5" transform="translate(338,195)"/>
<path d="M0 0 C6.9113364 0.47122748 12.72204161 3.20636006 19 6 C19 6.66 19 7.32 19 8 C12.38757278 6.17778624 6.19479329 3.94776396 0 1 C0 0.67 0 0.34 0 0 Z " fill="#B3CDB9" transform="translate(303,342)"/>
<path d="M0 0 C0.33 0.99 0.66 1.98 1 3 C-0.36328125 5.62890625 -0.36328125 5.62890625 -2.3125 8.5625 C-2.94800781 9.53316406 -3.58351563 10.50382812 -4.23828125 11.50390625 C-6 14 -6 14 -8 16 C-8.99 15.67 -9.98 15.34 -11 15 C-10.18595703 14.00419922 -10.18595703 14.00419922 -9.35546875 12.98828125 C-8.64003906 12.10527344 -7.92460937 11.22226562 -7.1875 10.3125 C-6.47980469 9.44238281 -5.77210938 8.57226562 -5.04296875 7.67578125 C-3.15270354 5.20000368 -1.54332599 2.70203762 0 0 Z " fill="#E3EEE6" transform="translate(408,289)"/>
<path d="M0 0 C0.33 0 0.66 0 1 0 C1.02698189 1.62490954 1.04638757 3.24994633 1.0625 4.875 C1.07410156 5.77992188 1.08570313 6.68484375 1.09765625 7.6171875 C1 10 1 10 0 12 C-0.99 12 -1.98 12 -3 12 C-3.28846154 4.5 -3.28846154 4.5 -1 1 C-0.67 0.67 -0.34 0.34 0 0 Z " fill="#93BE9E" transform="translate(257,234)"/>
<path d="M0 0 C0.99 0.33 1.98 0.66 3 1 C3.66 4.63 4.32 8.26 5 12 C0.02368421 7.18421053 0.02368421 7.18421053 -0.0625 2.875 C-0.041875 1.92625 -0.02125 0.9775 0 0 Z " fill="#DCE7DE" transform="translate(296,279)"/>
<path d="M0 0 C-3.17320782 3.53586014 -5.16743695 5.58578031 -10 6 C-9.1875 3.5625 -9.1875 3.5625 -8 1 C-5.07175348 0.02391783 -3.04386724 -0.08226668 0 0 Z " fill="#C5D8C9" transform="translate(203,344)"/>
<path d="M0 0 C0.66 0 1.32 0 2 0 C-2.21808511 11.03191489 -2.21808511 11.03191489 -7 14 C-6.67 12.68 -6.34 11.36 -6 10 C-5.34 10 -4.68 10 -4 10 C-3.71125 9.0925 -3.4225 8.185 -3.125 7.25 C-2.23468224 4.67797092 -1.28505587 2.38653234 0 0 Z " fill="#EDF4EF" transform="translate(443,300)"/>
<path d="M0 0 C3.45201639 1.47721422 5.64961936 3.43794001 8.25 6.125 C8.95640625 6.84945313 9.6628125 7.57390625 10.390625 8.3203125 C11.18726563 9.15175781 11.18726563 9.15175781 12 10 C8.47967572 10 7.5614657 9.29648649 5 7 C5 6.34 5 5.68 5 5 C4.360625 4.731875 3.72125 4.46375 3.0625 4.1875 C1 3 1 3 0 0 Z " fill="#DCEBDF" transform="translate(282,325)"/>
<path d="M0 0 C2.3125 0.8125 2.3125 0.8125 5 3 C6.35625328 6.59195204 7.21598324 10.24564331 8 14 C5.65879468 11.85946942 4.24763409 9.85334961 2.875 7 C2.54242188 6.319375 2.20984375 5.63875 1.8671875 4.9375 C1 3 1 3 0 0 Z " fill="#EBF3ED" transform="translate(68,304)"/>
<path d="M0 0 C1.65 0 3.3 0 5 0 C5 1.98 5 3.96 5 6 C4.67 5.34 4.34 4.68 4 4 C2.68 4 1.36 4 0 4 C-0.33 4.66 -0.66 5.32 -1 6 C-0.67 4.02 -0.34 2.04 0 0 Z " fill="#F9FCFA" transform="translate(253,277)"/>
<path d="M0 0 C0.66 0 1.32 0 2 0 C0.6302836 3.99500618 -1.25722422 6.80009492 -4 10 C-4 5.75354935 -2.18249194 3.61475228 0 0 Z " fill="#E4EEE7" transform="translate(212,284)"/>
<path d="M0 0 C1.73662334 3.22515763 2.8905928 6.51329166 4 10 C2.35 10 0.7 10 -1 10 C-0.835 9.46375 -0.67 8.9275 -0.5 8.375 C0.09660212 5.54113991 0.0656368 2.8880194 0 0 Z " fill="#FAFCFA" transform="translate(214,235)"/>
<path d="M0 0 C0.33 0 0.66 0 1 0 C1 2.64 1 5.28 1 8 C0.01 8.33 -0.98 8.66 -2 9 C-1.125 1.125 -1.125 1.125 0 0 Z " fill="#ACD0B5" transform="translate(294,233)"/>
<path d="M0 0 C0.66 0.33 1.32 0.66 2 1 C0.29374499 3.78388975 -0.47626739 4.85384206 -3.6875 5.75 C-4.8321875 5.87375 -4.8321875 5.87375 -6 6 C-4.98545548 3.4636387 -4.3146444 2.20648539 -2 0.6875 C-1.34 0.460625 -0.68 0.23375 0 0 Z " fill="#B8D2BE" transform="translate(326,196)"/>
<path d="M0 0 C3.96 1.98 3.96 1.98 8 4 C8 4.66 8 5.32 8 6 C2.25 4.125 2.25 4.125 0 3 C0 2.01 0 1.02 0 0 Z " fill="#E6F0E9" transform="translate(322,310)"/>
<path d="M0 0 C3.93673644 1.31224548 6.22719294 2.91910327 9 6 C4.75177626 5.52797514 2.80010291 3.03344482 0 0 Z " fill="#DFEDE2" transform="translate(190,201)"/>
</svg>
