<?xml version="1.0" standalone="no"?>
<!DOCTYPE svg PUBLIC "-//W3C//DTD SVG 20010904//EN"
 "http://www.w3.org/TR/2001/REC-SVG-20010904/DTD/svg10.dtd">
<svg version="1.0" xmlns="http://www.w3.org/2000/svg"
 width="192.000000pt" height="192.000000pt" viewBox="0 0 192.000000 192.000000"
 preserveAspectRatio="xMidYMid meet">

<g transform="translate(0.000000,192.000000) scale(0.100000,-0.100000)"
fill="#000000" stroke="none">
<path d="M414 1656 c-17 -8 -34 -21 -37 -29 -3 -9 -6 -96 -6 -195 0 -241 -31
-220 319 -222 l271 -1 -3 205 -3 206 -26 24 c-26 24 -28 24 -255 25 -174 1
-236 -3 -260 -13z"/>
<path d="M960 960 l0 -230 254 0 c259 0 308 6 326 39 5 10 9 99 9 198 0 243
31 221 -318 223 l-271 1 0 -231z"/>
<path d="M414 696 c-17 -8 -34 -21 -37 -29 -3 -9 -6 -96 -6 -195 0 -241 -26
-221 289 -221 l242 0 27 25 26 24 3 205 3 205 -258 0 c-194 -1 -266 -4 -289
-14z"/>
</g>
</svg>
