<?xml version="1.0" encoding="UTF-8"?>
<svg version="1.1" xmlns="http://www.w3.org/2000/svg" width="1456" height="2048">
<path d="M0 0 C1.95898567 -0.00693126 3.91795106 -0.01898906 5.87691116 -0.03116226 C30.73075767 -0.14964192 55.33014467 1.69418478 79.81462479 6.05541611 C80.52777847 6.18074722 81.24093216 6.30607834 81.97569656 6.43520737 C136.21183626 16.02604257 187.9626713 35.48544733 235.43962479 63.36791611 C236.25060623 63.8437413 237.06158768 64.3195665 237.89714432 64.80981064 C262.60563589 79.40062326 286.01723036 96.26550775 307.43962479 115.36791611 C308.33810135 116.16713486 309.23657791 116.96635361 310.16228104 117.78979111 C311.81734062 119.27346121 313.46729776 120.76284765 315.11149979 122.25854111 C316.60966394 123.61593816 318.1193055 124.96082907 319.64274979 126.28979111 C325.52505801 131.4518167 331.08503021 136.90684758 336.62712479 142.43041611 C337.38767166 143.1863707 338.14821854 143.94232529 338.93181229 144.72118759 C343.09146757 148.89218574 347.08372942 153.15065874 350.92717361 157.61474228 C352.80014667 159.78581888 354.74425186 161.88670526 356.68962479 163.99291611 C361.74144836 169.59941625 366.36784248 175.49190359 370.96843338 181.46850204 C372.43011985 183.35564455 373.91127775 185.22594965 375.39665604 187.09447861 C430.11029575 256.5065244 463.27788532 341.07364643 475.68962479 428.18041611 C475.84076736 429.22600693 475.99190994 430.27159775 476.1476326 431.34887314 C478.84530919 451.46574587 479.79761802 471.69732356 479.70134354 491.97729111 C479.6989385 493.07762428 479.69653347 494.17795746 479.69405556 495.31163406 C479.61404053 525.64285103 478.55158421 555.95349925 477.50519532 586.26354462 C477.30479098 592.06951876 477.10825058 597.87561375 476.9137764 603.6817894 C473.89896396 693.59600258 470.80623297 783.5586942 463.12094498 906.84749985 C462.96105302 909.03839807 462.82394935 911.22948896 462.69426346 913.42235947 C462.53355945 915.91242414 462.31707403 918.40008492 462.02287674 920.87792587 C461.17420756 931.59227722 465.73406014 939.44008689 470.67213821 948.60152817 C473.15749404 953.22021247 475.5432862 957.8901079 477.93962479 962.55541611 C478.41828491 963.48212616 478.89694504 964.40883621 479.39011002 965.36362839 C485.89483266 978.02774783 491.27298996 991.1099621 496.43962479 1004.36791611 C496.88306229 1005.50116318 497.32649979 1006.63441025 497.78337479 1007.80199814 C526.46807993 1081.72273941 543.41233421 1162.0895902 543.64274979 1241.52807236 C543.64977304 1243.03581903 543.65685985 1244.5435654 543.66400528 1246.05131149 C543.68340578 1250.84435072 543.68843958 1255.63734157 543.68962479 1260.43041611 C543.69006664 1261.24728394 543.6905085 1262.06415176 543.69096375 1262.90577316 C543.698038 1287.84491653 543.3684128 1312.5723972 540.43962479 1337.36791611 C540.26611009 1338.88840398 540.09277441 1340.40891228 539.91960526 1341.92943954 C534.4748263 1389.01288365 524.33879313 1435.36896429 509.43962479 1480.36791611 C509.0640242 1481.52162704 508.68842361 1482.67533798 508.30144119 1483.86400986 C487.40531037 1547.83356046 456.47190059 1609.57130584 417.43962479 1664.36791611 C416.92158279 1665.09704208 416.4035408 1665.82616806 415.86980057 1666.57738876 C399.33807478 1689.79246584 381.61473437 1712.05654556 362.43962479 1733.14916611 C360.63327001 1735.15309094 358.87718063 1737.18996598 357.12712479 1739.24291611 C353.5622166 1743.3479619 349.70383064 1747.13404675 345.83610916 1750.94994736 C343.1374933 1753.62497981 340.55707002 1756.31693554 338.12712479 1759.24291611 C333.10958802 1765.11887482 327.23069749 1770.17952842 321.55583572 1775.4045372 C319.37883493 1777.42431574 317.2230609 1779.46462145 315.07243729 1781.51244736 C308.30534604 1787.95353165 301.55925687 1794.28846579 294.23649979 1800.10229111 C290.76509071 1802.91432639 287.42188558 1805.85897189 284.06462479 1808.80541611 C277.9689764 1814.12374142 271.7284877 1819.15479666 265.24968338 1823.99975204 C263.33376907 1825.44792898 261.44319753 1826.92553582 259.55290604 1828.40697861 C235.32811545 1847.19722744 209.24205041 1864.48415111 182.43962479 1879.36791611 C181.56209549 1879.85824326 180.68456619 1880.3485704 179.7804451 1880.85375595 C174.27972791 1883.91788094 168.75089695 1886.92543288 163.19743729 1889.89281845 C161.37468857 1890.86776956 159.55432189 1891.84718865 157.73649979 1892.83129501 C85.69612889 1931.80544798 4.98323944 1956.33280369 -129.41584396 1971.05932236 C-136.69561677 1971.77373484 -140.79051061 1974.86318687 -146.24787521 1979.36791611 C-180.41418031 2006.67221881 -219.95086848 2028.35644916 -260.56037521 2044.36791611 C-261.31270127 2044.69355606 -262.06502732 2045.01919601 -262.84015113 2045.35470384 C-270.24218301 2048.36071668 -276.727939 2048.9552052 -284.6644249 2048.93641281 C-286.58025957 2048.95529789 -286.58025957 2048.95529789 -288.53479797 2048.97456449 C-292.05111936 2049.00848115 -295.56712672 2049.01785181 -299.0835923 2049.02274621 C-302.88850359 2049.0322694 -306.69323847 2049.06450829 -310.49804306 2049.09336472 C-319.67570469 2049.15789719 -328.85333262 2049.18470739 -338.03117511 2049.20827904 C-342.36996316 2049.22043388 -346.70873285 2049.2371657 -351.04750633 2049.25362587 C-365.50154081 2049.307209 -379.95555445 2049.35258575 -394.40968227 2049.36999989 C-395.33351111 2049.37112971 -396.25733995 2049.37225954 -397.20916359 2049.3734236 C-398.59798324 2049.37511646 -398.59798324 2049.37511646 -400.01485986 2049.37684351 C-401.89062736 2049.37914232 -403.76639485 2049.38145626 -405.64216232 2049.38378525 C-406.57258214 2049.38493328 -407.50300196 2049.38608131 -408.46161631 2049.38726413 C-423.48732415 2049.40734607 -438.51213614 2049.48488831 -453.53748526 2049.58744449 C-469.01918774 2049.69224515 -484.50044201 2049.74708945 -499.98250324 2049.75374788 C-508.65262542 2049.75862624 -517.32154232 2049.78384578 -525.99131966 2049.86466789 C-533.38551792 2049.93338798 -540.7781645 2049.95555299 -548.17263033 2049.9214868 C-551.93067375 2049.90547674 -555.68558911 2049.90851308 -559.4432106 2049.97142029 C-582.17890805 2050.33035664 -599.24942539 2044.9960988 -619.56037521 2035.36791611 C-621.45845882 2034.50797721 -623.35849394 2033.65232154 -625.26119137 2032.80263996 C-667.89995778 2013.75240634 -707.57927451 1986.04363941 -742.02082443 1954.67260361 C-743.62642974 1953.21548824 -745.2385878 1951.76553255 -746.85969162 1950.32567978 C-753.0248744 1944.84473936 -758.92900015 1939.15112687 -764.74787521 1933.30541611 C-765.59801193 1932.45914658 -766.44814865 1931.61287704 -767.32404709 1930.74096298 C-772.2792897 1925.77806749 -777.00027391 1920.69373996 -781.56037521 1915.36791611 C-782.58181827 1914.21120391 -783.60521571 1913.05621423 -784.63068771 1911.90307236 C-792.73288571 1902.72242031 -800.27111589 1893.20384135 -807.56037521 1883.36791611 C-808.10725998 1882.63137802 -808.65414474 1881.89483994 -809.21760178 1881.13598251 C-817.09640434 1870.48363788 -824.58431358 1859.63324809 -831.56037521 1848.36791611 C-832.05473068 1847.56998642 -832.54908615 1846.77205673 -833.05842209 1845.94994736 C-879.01854126 1771.18506245 -903.33126368 1686.88587304 -908.56037521 1580.36791611 C-908.60071821 1579.30310642 -908.64106121 1578.23829674 -908.68262672 1577.14122009 C-909.39318373 1558.00689043 -909.73370438 1538.89443966 -909.76022267 1519.7461257 C-909.76357454 1517.5776438 -909.7684541 1515.40917007 -909.77376747 1513.24069214 C-909.79822434 1503.1299336 -909.80792292 1493.01920878 -909.80981398 1482.90842247 C-909.81037804 1480.48075075 -909.81144509 1478.05307967 -909.81260681 1475.62540817 C-909.8307124 1432.45083123 -909.5114365 1389.38953386 -907.20434189 1346.26757431 C-906.24101636 1328.0741089 -905.68409679 1309.86404611 -905.09288025 1291.6554184 C-904.99857426 1288.76434618 -904.90268127 1285.87333077 -904.80631638 1282.98232651 C-904.09089313 1261.46857504 -903.47747693 1239.95544926 -903.03303146 1218.43432236 C-902.99158988 1216.46190969 -902.95012172 1214.48949757 -902.90862656 1212.51708603 C-902.73313718 1204.1014678 -902.56445223 1195.6859434 -902.42616844 1187.26962471 C-902.1432591 1170.43068147 -901.64297424 1153.67517746 -900.14240646 1136.89525986 C-900.05210915 1135.88009953 -900.05210915 1135.88009953 -899.95998764 1134.84443092 C-895.4945197 1085.72773299 -883.57477395 1037.06358457 -865.06037521 991.36791611 C-864.38688034 989.68133896 -864.38688034 989.68133896 -863.69977951 987.96068954 C-861.59429542 982.81151856 -859.41049994 977.94730887 -856.50178146 973.19994736 C-847.95230407 958.72213446 -849.48515265 946.21993151 -851.78980637 930.19465256 C-855.86566183 901.76479372 -855.94102504 872.90966472 -855.87287521 844.24291611 C-855.87064773 842.57357413 -855.86847148 840.90423209 -855.86634445 839.23488998 C-855.81756547 811.52149745 -855.02881835 783.98365745 -852.56037521 756.36791611 C-852.46327255 755.26836594 -852.36616989 754.16881577 -852.26612473 753.03594589 C-843.69656652 656.63648774 -830.53950627 559.52393353 -762.56037521 387.36791611 C-761.98529221 386.21372177 -761.4102092 385.05952744 -760.81769943 383.87035751 C-744.10912237 350.53337438 -724.21107798 318.98861241 -701.56037521 289.36791611 C-701.06988693 288.72580185 -700.57939865 288.08368759 -700.07404709 287.42211533 C-691.38378017 276.09816548 -682.21527014 265.19685475 -672.61115646 254.63744736 C-670.70809433 252.53139193 -668.848837 250.39471142 -666.99787521 248.24291611 C-663.98737838 244.78049712 -660.78061595 241.56723843 -657.50959396 238.35229111 C-655.69561565 236.50559575 -654.03326078 234.60217935 -652.37287521 232.61791611 C-648.17943063 227.73038414 -643.38803193 223.51202682 -638.63068771 219.18822861 C-636.32276448 217.08570082 -634.10144722 214.93020104 -631.93537521 212.68041611 C-628.343788 209.01788396 -624.35514221 205.88292504 -620.36115646 202.67260361 C-617.79847919 200.56384546 -615.36463654 198.3775016 -612.93537521 196.11791611 C-606.5045491 190.25962777 -599.52085468 185.12943662 -592.57795334 179.90209579 C-590.84025712 178.58074015 -589.12417966 177.23949555 -587.41975021 175.87572861 C-527.50739897 128.29827321 -453.50628487 96.37562928 -379.56037521 78.36791611 C-378.43405685 78.09254013 -377.30773849 77.81716415 -376.14728928 77.53344345 C-344.57218274 69.9218332 -312.43775454 65.53431035 -280.06037521 63.24291611 C-278.82915939 63.15421249 -277.59794357 63.06550888 -276.32941818 62.97411728 C-269.42196919 62.52594433 -262.60639707 62.34225055 -255.68928146 62.44604111 C-237.41798183 62.64210438 -224.68407059 61.11078258 -208.89728928 50.86010361 C-205.62433034 48.77022427 -202.23091492 47.01466034 -198.74787521 45.30541611 C-198.13702072 44.99990829 -197.52616623 44.69440048 -196.89680099 44.37963486 C-186.35651791 39.19615134 -175.43652187 34.78819609 -164.56037521 30.36791611 C-163.72667404 30.02873154 -162.89297287 29.68954697 -162.03400803 29.34008408 C-129.43014896 16.26639777 -94.22080567 8.33426775 -59.56037521 3.36791611 C-58.44807541 3.20130478 -57.3357756 3.03469345 -56.18976974 2.86303329 C-37.53195399 0.18137134 -18.81684309 0.05579554 0 0 Z " fill="#F9A83A" transform="translate(909.560375213623,-0.3679161071777344)"/>
<path d="M0 0 C1.95898567 -0.00693126 3.91795106 -0.01898906 5.87691116 -0.03116226 C30.73075767 -0.14964192 55.33014467 1.69418478 79.81462479 6.05541611 C80.52777847 6.18074722 81.24093216 6.30607834 81.97569656 6.43520737 C136.21183626 16.02604257 187.9626713 35.48544733 235.43962479 63.36791611 C236.25060623 63.8437413 237.06158768 64.3195665 237.89714432 64.80981064 C262.60563589 79.40062326 286.01723036 96.26550775 307.43962479 115.36791611 C308.33810135 116.16713486 309.23657791 116.96635361 310.16228104 117.78979111 C311.81734062 119.27346121 313.46729776 120.76284765 315.11149979 122.25854111 C316.60966394 123.61593816 318.1193055 124.96082907 319.64274979 126.28979111 C325.52505801 131.4518167 331.08503021 136.90684758 336.62712479 142.43041611 C337.38767166 143.1863707 338.14821854 143.94232529 338.93181229 144.72118759 C343.09146757 148.89218574 347.08372942 153.15065874 350.92717361 157.61474228 C352.80014667 159.78581888 354.74425186 161.88670526 356.68962479 163.99291611 C361.74144836 169.59941625 366.36784248 175.49190359 370.96843338 181.46850204 C372.43011985 183.35564455 373.91127775 185.22594965 375.39665604 187.09447861 C430.11029575 256.5065244 463.27788532 341.07364643 475.68962479 428.18041611 C475.84076736 429.22600693 475.99190994 430.27159775 476.1476326 431.34887314 C478.84530919 451.46574587 479.79761802 471.69732356 479.70134354 491.97729111 C479.6989385 493.07762428 479.69653347 494.17795746 479.69405556 495.31163406 C479.61404053 525.64285103 478.55158421 555.95349925 477.50519532 586.26354462 C477.30479098 592.06951876 477.10825058 597.87561375 476.9137764 603.6817894 C473.89896396 693.59600258 470.80623297 783.5586942 463.12094498 906.84749985 C462.96105302 909.03839807 462.82394935 911.22948896 462.69426346 913.42235947 C462.53355945 915.91242414 462.31707403 918.40008492 462.02287674 920.87792587 C461.17420756 931.59227722 465.73406014 939.44008689 470.67213821 948.60152817 C473.15749404 953.22021247 475.5432862 957.8901079 477.93962479 962.55541611 C478.41828491 963.48212616 478.89694504 964.40883621 479.39011002 965.36362839 C485.89483266 978.02774783 491.27298996 991.1099621 496.43962479 1004.36791611 C496.88306229 1005.50116318 497.32649979 1006.63441025 497.78337479 1007.80199814 C526.46807993 1081.72273941 543.41233421 1162.0895902 543.64274979 1241.52807236 C543.64977304 1243.03581903 543.65685985 1244.5435654 543.66400528 1246.05131149 C543.68340578 1250.84435072 543.68843958 1255.63734157 543.68962479 1260.43041611 C543.69006664 1261.24728394 543.6905085 1262.06415176 543.69096375 1262.90577316 C543.698038 1287.84491653 543.3684128 1312.5723972 540.43962479 1337.36791611 C540.26611009 1338.88840398 540.09277441 1340.40891228 539.91960526 1341.92943954 C534.4748263 1389.01288365 524.33879313 1435.36896429 509.43962479 1480.36791611 C509.0640242 1481.52162704 508.68842361 1482.67533798 508.30144119 1483.86400986 C487.40531037 1547.83356046 456.47190059 1609.57130584 417.43962479 1664.36791611 C416.92158279 1665.09704208 416.4035408 1665.82616806 415.86980057 1666.57738876 C399.33807478 1689.79246584 381.61473437 1712.05654556 362.43962479 1733.14916611 C360.63327001 1735.15309094 358.87718063 1737.18996598 357.12712479 1739.24291611 C353.5622166 1743.3479619 349.70383064 1747.13404675 345.83610916 1750.94994736 C343.1374933 1753.62497981 340.55707002 1756.31693554 338.12712479 1759.24291611 C333.10958802 1765.11887482 327.23069749 1770.17952842 321.55583572 1775.4045372 C319.37883493 1777.42431574 317.2230609 1779.46462145 315.07243729 1781.51244736 C308.30534604 1787.95353165 301.55925687 1794.28846579 294.23649979 1800.10229111 C290.76509071 1802.91432639 287.42188558 1805.85897189 284.06462479 1808.80541611 C277.9689764 1814.12374142 271.7284877 1819.15479666 265.24968338 1823.99975204 C263.33376907 1825.44792898 261.44319753 1826.92553582 259.55290604 1828.40697861 C235.32811545 1847.19722744 209.24205041 1864.48415111 182.43962479 1879.36791611 C181.56209549 1879.85824326 180.68456619 1880.3485704 179.7804451 1880.85375595 C174.27972791 1883.91788094 168.75089695 1886.92543288 163.19743729 1889.89281845 C161.37468857 1890.86776956 159.55432189 1891.84718865 157.73649979 1892.83129501 C85.69612889 1931.80544798 4.98323944 1956.33280369 -129.41584396 1971.05932236 C-136.69561677 1971.77373484 -140.79051061 1974.86318687 -146.24787521 1979.36791611 C-180.41418031 2006.67221881 -219.95086848 2028.35644916 -260.56037521 2044.36791611 C-261.31270127 2044.69355606 -262.06502732 2045.01919601 -262.84015113 2045.35470384 C-270.24218301 2048.36071668 -276.727939 2048.9552052 -284.6644249 2048.93641281 C-286.58025957 2048.95529789 -286.58025957 2048.95529789 -288.53479797 2048.97456449 C-292.05111936 2049.00848115 -295.56712672 2049.01785181 -299.0835923 2049.02274621 C-302.88850359 2049.0322694 -306.69323847 2049.06450829 -310.49804306 2049.09336472 C-319.67570469 2049.15789719 -328.85333262 2049.18470739 -338.03117511 2049.20827904 C-342.36996316 2049.22043388 -346.70873285 2049.2371657 -351.04750633 2049.25362587 C-365.50154081 2049.307209 -379.95555445 2049.35258575 -394.40968227 2049.36999989 C-395.33351111 2049.37112971 -396.25733995 2049.37225954 -397.20916359 2049.3734236 C-398.59798324 2049.37511646 -398.59798324 2049.37511646 -400.01485986 2049.37684351 C-401.89062736 2049.37914232 -403.76639485 2049.38145626 -405.64216232 2049.38378525 C-406.57258214 2049.38493328 -407.50300196 2049.38608131 -408.46161631 2049.38726413 C-423.48732415 2049.40734607 -438.51213614 2049.48488831 -453.53748526 2049.58744449 C-469.01918774 2049.69224515 -484.50044201 2049.74708945 -499.98250324 2049.75374788 C-508.65262542 2049.75862624 -517.32154232 2049.78384578 -525.99131966 2049.86466789 C-533.38551792 2049.93338798 -540.7781645 2049.95555299 -548.17263033 2049.9214868 C-551.93067375 2049.90547674 -555.68558911 2049.90851308 -559.4432106 2049.97142029 C-582.17890805 2050.33035664 -599.24942539 2044.9960988 -619.56037521 2035.36791611 C-621.45845882 2034.50797721 -623.35849394 2033.65232154 -625.26119137 2032.80263996 C-667.89995778 2013.75240634 -707.57927451 1986.04363941 -742.02082443 1954.67260361 C-743.62642974 1953.21548824 -745.2385878 1951.76553255 -746.85969162 1950.32567978 C-753.0248744 1944.84473936 -758.92900015 1939.15112687 -764.74787521 1933.30541611 C-765.59801193 1932.45914658 -766.44814865 1931.61287704 -767.32404709 1930.74096298 C-772.2792897 1925.77806749 -777.00027391 1920.69373996 -781.56037521 1915.36791611 C-782.58181827 1914.21120391 -783.60521571 1913.05621423 -784.63068771 1911.90307236 C-792.73288571 1902.72242031 -800.27111589 1893.20384135 -807.56037521 1883.36791611 C-808.10725998 1882.63137802 -808.65414474 1881.89483994 -809.21760178 1881.13598251 C-817.09640434 1870.48363788 -824.58431358 1859.63324809 -831.56037521 1848.36791611 C-832.05473068 1847.56998642 -832.54908615 1846.77205673 -833.05842209 1845.94994736 C-879.01854126 1771.18506245 -903.33126368 1686.88587304 -908.56037521 1580.36791611 C-908.60071821 1579.30310642 -908.64106121 1578.23829674 -908.68262672 1577.14122009 C-909.39318373 1558.00689043 -909.73370438 1538.89443966 -909.76022267 1519.7461257 C-909.76357454 1517.5776438 -909.7684541 1515.40917007 -909.77376747 1513.24069214 C-909.79822434 1503.1299336 -909.80792292 1493.01920878 -909.80981398 1482.90842247 C-909.81037804 1480.48075075 -909.81144509 1478.05307967 -909.81260681 1475.62540817 C-909.8307124 1432.45083123 -909.5114365 1389.38953386 -907.20434189 1346.26757431 C-906.24101636 1328.0741089 -905.68409679 1309.86404611 -905.09288025 1291.6554184 C-904.99857426 1288.76434618 -904.90268127 1285.87333077 -904.80631638 1282.98232651 C-904.09089313 1261.46857504 -903.47747693 1239.95544926 -903.03303146 1218.43432236 C-902.99158988 1216.46190969 -902.95012172 1214.48949757 -902.90862656 1212.51708603 C-902.73313718 1204.1014678 -902.56445223 1195.6859434 -902.42616844 1187.26962471 C-902.1432591 1170.43068147 -901.64297424 1153.67517746 -900.14240646 1136.89525986 C-900.05210915 1135.88009953 -900.05210915 1135.88009953 -899.95998764 1134.84443092 C-895.4945197 1085.72773299 -883.57477395 1037.06358457 -865.06037521 991.36791611 C-864.38688034 989.68133896 -864.38688034 989.68133896 -863.69977951 987.96068954 C-861.59429542 982.81151856 -859.41049994 977.94730887 -856.50178146 973.19994736 C-847.95230407 958.72213446 -849.48515265 946.21993151 -851.78980637 930.19465256 C-855.86566183 901.76479372 -855.94102504 872.90966472 -855.87287521 844.24291611 C-855.87064773 842.57357413 -855.86847148 840.90423209 -855.86634445 839.23488998 C-855.81756547 811.52149745 -855.02881835 783.98365745 -852.56037521 756.36791611 C-852.46327255 755.26836594 -852.36616989 754.16881577 -852.26612473 753.03594589 C-843.69656652 656.63648774 -830.53950627 559.52393353 -762.56037521 387.36791611 C-761.98529221 386.21372177 -761.4102092 385.05952744 -760.81769943 383.87035751 C-744.10912237 350.53337438 -724.21107798 318.98861241 -701.56037521 289.36791611 C-701.06988693 288.72580185 -700.57939865 288.08368759 -700.07404709 287.42211533 C-691.38378017 276.09816548 -682.21527014 265.19685475 -672.61115646 254.63744736 C-670.70809433 252.53139193 -668.848837 250.39471142 -666.99787521 248.24291611 C-663.98737838 244.78049712 -660.78061595 241.56723843 -657.50959396 238.35229111 C-655.69561565 236.50559575 -654.03326078 234.60217935 -652.37287521 232.61791611 C-648.17943063 227.73038414 -643.38803193 223.51202682 -638.63068771 219.18822861 C-636.32276448 217.08570082 -634.10144722 214.93020104 -631.93537521 212.68041611 C-628.343788 209.01788396 -624.35514221 205.88292504 -620.36115646 202.67260361 C-617.79847919 200.56384546 -615.36463654 198.3775016 -612.93537521 196.11791611 C-606.5045491 190.25962777 -599.52085468 185.12943662 -592.57795334 179.90209579 C-590.84025712 178.58074015 -589.12417966 177.23949555 -587.41975021 175.87572861 C-527.50739897 128.29827321 -453.50628487 96.37562928 -379.56037521 78.36791611 C-378.43405685 78.09254013 -377.30773849 77.81716415 -376.14728928 77.53344345 C-344.57218274 69.9218332 -312.43775454 65.53431035 -280.06037521 63.24291611 C-278.82915939 63.15421249 -277.59794357 63.06550888 -276.32941818 62.97411728 C-269.42196919 62.52594433 -262.60639707 62.34225055 -255.68928146 62.44604111 C-237.41798183 62.64210438 -224.68407059 61.11078258 -208.89728928 50.86010361 C-205.62433034 48.77022427 -202.23091492 47.01466034 -198.74787521 45.30541611 C-198.13702072 44.99990829 -197.52616623 44.69440048 -196.89680099 44.37963486 C-186.35651791 39.19615134 -175.43652187 34.78819609 -164.56037521 30.36791611 C-163.72667404 30.02873154 -162.89297287 29.68954697 -162.03400803 29.34008408 C-129.43014896 16.26639777 -94.22080567 8.33426775 -59.56037521 3.36791611 C-58.44807541 3.20130478 -57.3357756 3.03469345 -56.18976974 2.86303329 C-37.53195399 0.18137134 -18.81684309 0.05579554 0 0 Z M-163.56037521 291.36791611 C-164.26162521 292.15682236 -164.96287521 292.94572861 -165.68537521 293.75854111 C-167.56037521 295.36791611 -167.56037521 295.36791611 -170.08381271 295.61010361 C-171.49533615 295.42834579 -171.49533615 295.42834579 -172.93537521 295.24291611 C-174.00529709 295.11529892 -175.07521896 294.98768173 -176.17756271 294.85619736 C-177.29389084 294.69506454 -178.41021896 294.53393173 -179.56037521 294.36791611 C-181.1420549 294.14168564 -181.1420549 294.14168564 -182.75568771 293.91088486 C-184.98621775 293.58658794 -187.21660207 293.2612874 -189.44684982 292.93505478 C-203.76515307 290.91908128 -217.9420623 290.06225505 -232.39704514 290.16210556 C-235.12541218 290.18043315 -237.85343702 290.18261343 -240.58185959 290.18236923 C-258.14684997 290.21512188 -275.47539018 291.01562142 -292.87287521 293.49291611 C-293.64040115 293.60117722 -294.40792709 293.70943832 -295.1987114 293.82098007 C-377.80626678 305.6188771 -457.07681883 346.51318802 -511.56037521 410.36791611 C-512.34928146 411.26768173 -513.13818771 412.16744736 -513.95100021 413.09447861 C-556.60316342 462.10942718 -585.66171554 523.3496181 -601.91975021 585.95434189 C-602.74256355 589.05431622 -603.68292137 592.1141957 -604.62287521 595.18041611 C-607.93808236 606.73384187 -610.14946732 618.60079203 -612.56037521 630.36791611 C-612.85476486 631.79877548 -612.85476486 631.79877548 -613.15510178 633.25854111 C-616.20143092 648.2082217 -618.42960939 663.26407333 -620.56037521 678.36791611 C-620.69298752 679.29652451 -620.82559982 680.2251329 -620.96223068 681.18188095 C-623.43583028 698.54211116 -625.53249077 715.95089607 -627.56037521 733.36791611 C-627.66325851 734.24776169 -627.76614182 735.12760727 -627.87214279 736.03411484 C-631.90490164 770.58004396 -634.7183968 804.63352427 -634.74787521 839.43041611 C-634.7490535 840.487397 -634.75023178 841.5443779 -634.75144577 842.63338852 C-634.74870679 864.26818107 -634.28325006 885.86071654 -631.81037521 907.36791611 C-631.72456192 908.1359758 -631.63874863 908.90403549 -631.55033493 909.69536972 C-628.6318046 935.7647333 -624.85690452 961.67336776 -618.35725021 987.11791611 C-618.07603317 988.2189769 -618.07603317 988.2189769 -617.78913498 989.34228134 C-617.29162852 991.26161952 -616.7764531 993.17635494 -616.25959396 995.09057236 C-615.53905212 998.46786066 -615.07038899 1000.94250782 -615.56037521 1004.36791611 C-617.19129719 1006.76053241 -618.77968732 1008.78140477 -620.68537521 1010.93041611 C-656.64576563 1053.72208888 -677.71465882 1110.06190661 -680.06428146 1165.76244736 C-680.12549934 1167.19775551 -680.12549934 1167.19775551 -680.18795395 1168.66205978 C-680.78352632 1183.78440966 -681.01374387 1198.92001809 -681.31653023 1214.05039215 C-682.02081945 1249.24138067 -682.85256908 1284.41004431 -684.43537521 1319.5741539 C-684.56285933 1322.42343628 -684.68714191 1325.27284139 -684.81037521 1328.12231064 C-684.85226974 1329.09080444 -684.89416428 1330.05929825 -684.93732834 1331.05714035 C-685.01416441 1332.83426991 -685.09098924 1334.61139995 -685.16779709 1336.38853073 C-685.29717131 1339.36089292 -685.42859787 1342.33315939 -685.56037521 1345.30541611 C-685.59428612 1346.07494488 -685.62819702 1346.84447365 -685.66313553 1347.63732147 C-686.06301277 1356.68933672 -686.46407055 1365.74076719 -686.95581055 1374.78832626 C-688.63951289 1405.82539202 -688.87319788 1436.81923001 -688.81751299 1467.89634365 C-688.8078581 1473.90811121 -688.81763637 1479.91975669 -688.82800293 1485.93152428 C-688.96941915 1582.935949 -688.48075408 1682.29106069 -618.63459396 1758.11010361 C-616.77017109 1760.13955073 -614.97262968 1762.20825766 -613.18537521 1764.30541611 C-605.38777246 1773.21696211 -596.88572574 1781.0850391 -587.56037521 1788.36791611 C-586.94952072 1788.85518173 -586.33866623 1789.34244736 -585.70930099 1789.84447861 C-554.83655283 1814.46384665 -519.77551129 1831.0700365 -481.43537521 1840.11791611 C-480.61464523 1840.31659286 -479.79391525 1840.51526962 -478.94831467 1840.71996689 C-464.39872189 1844.0089499 -449.65068084 1844.70134229 -434.78400803 1844.62865829 C-432.19359928 1844.6179501 -429.60388807 1844.62862683 -427.01350021 1844.64135361 C-411.68639787 1844.65492486 -396.26042523 1843.766117 -381.24787521 1840.49291611 C-380.42287521 1840.3192955 -379.59787521 1840.1456749 -378.74787521 1839.96679306 C-332.50073554 1830.04964964 -290.64684486 1808.19805587 -256.56037521 1775.36791611 C-255.90101974 1774.73579208 -255.24166428 1774.10366806 -254.56232834 1773.45238876 C-245.06441046 1764.29862972 -236.43671388 1754.94431403 -228.56037521 1744.36791611 C-227.42535568 1742.99893173 -227.42535568 1742.99893173 -226.26740646 1741.60229111 C-224.35801218 1739.5716765 -224.35801218 1739.5716765 -224.56037521 1737.36791611 C-223.38801315 1737.50423447 -223.38801315 1737.50423447 -222.19196701 1737.64330673 C-200.96903218 1739.99822375 -179.84672289 1740.69827483 -158.49787521 1740.74291611 C-157.26580338 1740.75040878 -156.03373154 1740.75790146 -154.76432419 1740.76562119 C-137.15902056 1740.8534114 -120.01131923 1739.66105159 -102.56037521 1737.36791611 C-100.69025176 1737.13180607 -98.8200571 1736.89625911 -96.94977951 1736.66137314 C-3.42294528 1724.89609579 84.59528565 1681.71557494 162.89738846 1613.67455673 C164.50396131 1612.21686919 166.11701418 1610.76626371 167.73894119 1609.32567978 C173.90412397 1603.84473936 179.80824972 1598.15112687 185.62712479 1592.30541611 C186.47726151 1591.45914658 187.32739822 1590.61287704 188.20329666 1589.74096298 C193.15853927 1584.77806749 197.87952348 1579.69373996 202.43962479 1574.36791611 C203.46106784 1573.21120391 204.48446528 1572.05621423 205.50993729 1570.90307236 C213.61216847 1561.72141913 221.12457495 1552.1845695 228.43962479 1542.36791611 C228.92705154 1541.71790634 229.4144783 1541.06789658 229.91667557 1540.39818954 C265.53493603 1492.85054236 290.91436749 1439.34405651 307.43962479 1382.36791611 C307.87033279 1380.89693466 307.87033279 1380.89693466 308.30974197 1379.39623642 C316.05660034 1352.58593887 320.03382603 1325.11359521 322.43962479 1297.36791611 C322.52181259 1296.56236282 322.6040004 1295.75680954 322.68867874 1294.92684555 C323.34616832 1288.29732487 323.61274946 1281.73902871 323.64274979 1275.07885361 C323.6497641 1274.02959198 323.65677841 1272.98033035 323.66400528 1271.89927292 C323.681462 1268.51377663 323.68786218 1265.12845582 323.68962479 1261.74291611 C323.69029953 1260.58142044 323.69097427 1259.41992477 323.69166946 1258.22323227 C323.67404204 1239.08099963 322.92043143 1220.36242397 320.43962479 1201.36791611 C320.35476822 1200.700504 320.26991165 1200.03309189 320.18248367 1199.34545517 C314.47425906 1154.4536548 302.80898824 1110.61653314 283.4835701 1069.5998497 C282.48530436 1067.46557809 281.51683812 1065.32039201 280.55681229 1063.16869736 C267.77052895 1034.7801842 250.03885983 1004.45354732 228.72380447 981.52196884 C227.88704178 980.61620102 227.88704178 980.61620102 227.03337479 979.69213486 C226.51968338 979.15934921 226.00599197 978.62656357 225.47673416 978.0776329 C224.43962479 976.36791611 224.43962479 976.36791611 224.59025955 974.10473251 C225.33149602 971.41575005 226.3480121 968.93541634 227.43962479 966.36791611 C238.8449318 937.97035458 242.65263173 909.34609633 244.19011307 879.02563095 C244.37003755 876.38802964 244.61209584 873.81243289 244.92815018 871.19224167 C245.44087683 866.63604431 245.69917491 862.1011416 245.87273026 857.52099228 C245.907134 856.68138206 245.94153774 855.84177185 245.97698402 854.9767189 C246.08986343 852.2048841 246.19831307 849.43289427 246.30681229 846.66088486 C246.38656388 844.68494576 246.4666288 842.70901928 246.54698563 840.73310471 C246.71744926 836.52876004 246.88608429 832.32434785 247.05321121 828.11986923 C247.4487658 818.17132673 247.853121 808.22314052 248.25737 798.27494812 C248.34779117 796.04893715 248.4380948 793.8229214 248.52828217 791.59690094 C249.26630036 773.38675909 250.05438453 755.1793615 250.87892532 736.97295761 C252.16873527 708.48185908 253.24976623 679.98703052 254.20134354 651.4826622 C254.58279293 640.06441155 254.97621698 628.64657643 255.37294388 617.2288475 C255.4977283 613.62006321 255.62028427 610.01120851 255.7426033 606.40233994 C256.07539325 596.71299583 256.42737473 587.02887226 256.96306229 577.34838486 C257.88387824 560.70066072 258.17499088 544.03712381 258.43962479 527.36791611 C258.4698674 525.56538376 258.4698674 525.56538376 258.50072098 523.72643661 C258.62042071 516.40614873 258.71494313 509.08652865 258.76625538 501.76546192 C258.7896801 498.43983481 258.82328256 495.11526674 258.87422562 491.78988266 C259.26950843 464.78306417 255.55383098 439.17719873 247.43962479 413.36791611 C247.05749832 412.13718369 247.05749832 412.13718369 246.66765213 410.88158798 C238.25508321 384.23563301 225.57872268 358.25696418 208.65300369 335.96654892 C207.4159091 334.33667058 206.1987017 332.69318159 204.98259354 331.04760361 C199.99568756 324.36595569 194.65696391 318.14356498 188.95134354 312.06713486 C186.91601627 309.87987025 184.97841427 307.65973808 183.06462479 305.36791611 C174.11417934 295.09935281 163.30385824 286.51006889 152.43962479 278.36791611 C151.86599197 277.93736923 151.29235916 277.50682236 150.70134354 277.06322861 C141.96149534 270.55273221 132.89475185 264.77905808 123.43962479 259.36791611 C122.31685135 258.71178329 121.19407791 258.05565048 120.03728104 257.37963486 C99.00221415 245.57255007 75.08663408 237.01674431 51.43962479 232.36791611 C50.53341385 232.18309677 49.62720291 231.99827744 48.69353104 231.80785751 C-27.61945714 216.84676206 -105.53869404 240.50277902 -163.56037521 291.36791611 Z " fill="#FEFEFE" transform="translate(909.560375213623,-0.3679161071777344)"/>
<path d="M0 0 C13.54319703 9.68431349 23.074441 24.55708593 25.8515625 41.0390625 C26.1471593 45.80576668 26.12224602 50.56626864 26.08203125 55.33984375 C26.07898672 56.04981318 26.07594219 56.7597826 26.0728054 57.49126625 C25.98744186 76.40635505 25.1280484 95.29626742 24.2966423 114.19015884 C24.06787411 119.42951317 23.84768652 124.66922732 23.62719727 129.90893555 C23.53429135 132.1151888 23.44138052 134.32144185 23.34846497 136.5276947 C23.30159861 137.64090528 23.25473225 138.75411587 23.20644569 139.9010601 C23.0610856 143.3460205 22.91482495 146.79094167 22.76835632 150.2358551 C22.01085613 168.07802788 21.2864728 185.9214409 20.578125 203.765625 C20.55156547 204.43467841 20.52500593 205.10373183 20.49764156 205.79305959 C20.17439431 213.93874017 19.8523404 222.08446773 19.53079677 230.23021573 C19.26260082 237.02390213 18.99357074 243.81755543 18.72453356 250.61120856 C18.09852661 266.42042684 17.47446002 282.22972141 16.8515625 298.0390625 C16.80972336 299.10092522 16.76788422 300.16278793 16.72477722 301.25682831 C16.26411219 312.95072386 15.80485641 324.64467352 15.34790039 336.3387146 C15.22669683 339.43982414 15.10510848 342.54091818 14.9831543 345.64199829 C14.3857898 360.83577606 13.8098865 376.02968552 13.296875 391.2265625 C13.20933686 393.76953498 13.12169333 396.31250384 13.03393555 398.85546875 C12.87558447 403.44638549 12.72697087 408.03745104 12.58520508 412.62890625 C11.82690438 435.70025647 8.69334673 454.32245167 -8.78515625 471.0078125 C-21.43256446 481.87831212 -36.6523619 485.50186671 -52.94921875 484.28710938 C-66.88260518 482.71558178 -80.25083259 474.98577865 -89.3828125 464.46484375 C-93.97329287 458.41610928 -97.44440927 452.12877609 -100.1484375 445.0390625 C-100.38403885 444.44651672 -100.6196402 443.85397095 -100.86238098 443.24346924 C-103.31335783 436.60380143 -103.97871027 430.08217308 -104.578125 423.0625 C-104.81888042 420.50780025 -105.05977034 417.95311316 -105.30078125 415.3984375 C-105.66244371 411.42842541 -106.01952283 407.45809293 -106.37255859 403.48730469 C-108.42336185 380.67962661 -112.03328545 358.83793519 -119.1484375 337.0390625 C-119.46296875 336.07097656 -119.7775 335.10289062 -120.1015625 334.10546875 C-132.16875798 297.31853329 -148.92934805 266.33427696 -175.40161133 237.9284668 C-177.22999754 235.95084542 -179.04133521 233.95810534 -180.85343933 231.96557617 C-216.93441233 191.44290371 -216.93441233 191.44290371 -266.38671875 173.69921875 C-280.90029174 173.30101876 -295.55932326 174.04670741 -308.1484375 182.0390625 C-308.75816406 182.42320312 -309.36789062 182.80734375 -309.99609375 183.203125 C-332.88949412 200.20369111 -337.81556543 240.98009054 -341.78198242 267.1015625 C-342.25707444 270.4116773 -342.70674006 273.72432197 -343.1484375 277.0390625 C-343.24127014 277.73173218 -343.33410278 278.42440186 -343.42974854 279.13806152 C-344.96836638 290.63423244 -346.42290744 302.14033541 -347.85095215 313.6506958 C-348.13534761 315.9339701 -348.42286947 318.21682176 -348.71191406 320.49951172 C-349.91530908 330.00638644 -351.05524775 339.5189079 -352.1484375 349.0390625 C-352.30086914 350.32731934 -352.45330078 351.61557617 -352.61035156 352.94287109 C-358.43703905 403.0611927 -360.57317226 463.6104894 -328.12890625 505.65625 C-310.24018864 526.96340529 -283.62109398 533.8806833 -257.24066162 537.95022583 C-252.67704868 538.6567794 -248.12001102 539.40369556 -243.5625 540.1484375 C-242.62407257 540.30131729 -241.68564514 540.45419708 -240.71878052 540.61170959 C-216.48452129 544.58805365 -192.29683965 549.06976337 -168.56201172 555.41162109 C-165.56520545 556.1906816 -162.55390742 556.8859218 -159.53149414 557.55786133 C-153.51287972 558.93102538 -147.62716794 560.44354265 -141.73828125 562.3046875 C-141.05434799 562.52071121 -140.37041473 562.73673492 -139.66575623 562.95930481 C-137.49190877 563.64823043 -135.31985339 564.34251284 -133.1484375 565.0390625 C-132.44390442 565.2650412 -131.73937134 565.4910199 -131.01348877 565.72384644 C-78.93913621 582.47831383 -28.49010969 603.16781703 12.8515625 640.0390625 C13.38587891 640.51166504 13.92019531 640.98426758 14.47070312 641.47119141 C33.64283102 658.49981627 49.06269944 677.81215274 61.8515625 700.0390625 C62.21588379 700.6592627 62.58020508 701.27946289 62.95556641 701.91845703 C76.39787513 724.92366581 83.73288372 750.87075836 87.8515625 777.0390625 C88.03251465 778.17311523 88.2134668 779.30716797 88.39990234 780.47558594 C89.91412005 791.0522284 90.15966909 801.49080906 90.11230469 812.16601562 C90.1015763 815.0353711 90.11226915 817.90410076 90.125 820.7734375 C90.13323031 831.7031777 89.53334915 842.2339837 87.8515625 853.0390625 C87.73651367 853.85536133 87.62146484 854.67166016 87.50292969 855.51269531 C85.71702262 867.95431548 82.45411188 880.01609651 78.8515625 892.0390625 C78.60986328 892.85181641 78.36816406 893.66457031 78.11914062 894.50195312 C67.2138747 930.29132179 46.72977697 963.34508266 21.8515625 991.0390625 C21.38508301 991.56193848 20.91860352 992.08481445 20.43798828 992.62353516 C11.49965828 1002.61932247 2.34118023 1012.32493723 -8.19140625 1020.66455078 C-11.07085166 1022.97676066 -13.87574991 1025.35948128 -16.68359375 1027.7578125 C-22.86579369 1032.95635429 -29.40155641 1037.53740436 -36.1484375 1041.9765625 C-37.02550354 1042.55676147 -37.02550354 1042.55676147 -37.92028809 1043.14868164 C-85.05046598 1074.26220017 -139.0250696 1091.1696574 -195.49853516 1091.27929688 C-198.48238801 1091.28892998 -201.46552874 1091.32000471 -204.44921875 1091.3515625 C-217.9159597 1091.42593328 -230.87152043 1090.26740488 -244.1484375 1088.0390625 C-245.40011719 1087.82958984 -246.65179687 1087.62011719 -247.94140625 1087.40429688 C-250.95821325 1086.86558134 -253.95953092 1086.2823692 -256.9609375 1085.6640625 C-258.00515869 1085.45201172 -259.04937988 1085.23996094 -260.12524414 1085.02148438 C-268.28266792 1083.31854132 -276.20079982 1081.13907979 -284.14453125 1078.64208984 C-286.17693982 1078.03048541 -288.21664142 1077.48820767 -290.2734375 1076.96484375 C-310.2216426 1071.85846864 -329.27842813 1063.78522415 -347.90039062 1055.08300781 C-350.04267943 1054.0881743 -352.19463064 1053.11883929 -354.3515625 1052.15625 C-362.63048171 1048.42194571 -370.60580173 1044.23790016 -378.5234375 1039.7890625 C-379.39524658 1039.30083008 -380.26705566 1038.81259766 -381.1652832 1038.30957031 C-390.69189269 1032.87763312 -399.90385064 1026.93344306 -409.1484375 1021.0390625 C-409.03883585 1029.013212 -408.92587366 1036.98730501 -408.80909824 1044.96135235 C-408.75491696 1048.66765619 -408.70171746 1052.37396759 -408.65112305 1056.08032227 C-408.39548476 1074.74408894 -407.94469146 1093.38393815 -407.25692749 1112.03768921 C-405.92195179 1148.96976381 -405.92195179 1148.96976381 -412.1484375 1162.0390625 C-412.91027344 1163.65361328 -412.91027344 1163.65361328 -413.6875 1165.30078125 C-421.1222006 1179.34214708 -433.34960196 1188.68512385 -448.1484375 1194.0390625 C-463.193573 1197.48333973 -479.6565978 1196.28766509 -492.96875 1188.359375 C-495.46144567 1186.68517642 -497.80699809 1184.9172675 -500.1484375 1183.0390625 C-500.78265625 1182.56726562 -501.416875 1182.09546875 -502.0703125 1181.609375 C-510.41408858 1175.07464772 -515.32985564 1165.7399451 -519.1484375 1156.0390625 C-519.4578125 1155.26175781 -519.7671875 1154.48445313 -520.0859375 1153.68359375 C-521.77895829 1148.82429851 -522.37286409 1144.19623848 -522.66015625 1139.06640625 C-522.69942734 1138.37226624 -522.73869843 1137.67812622 -522.77915955 1136.96295166 C-522.90737815 1134.65523828 -523.02785701 1132.34718648 -523.1484375 1130.0390625 C-523.23681012 1128.44376593 -523.32518917 1126.84846971 -523.41357422 1125.25317383 C-525.06646979 1094.49056675 -525.34311086 1063.74659555 -525.33646774 1032.94755554 C-525.33594519 1029.95807759 -525.33709949 1026.96860362 -525.33840942 1023.97912598 C-525.34312169 993.25956425 -525.04045632 962.59809813 -523.04787636 931.93655205 C-521.8865449 914.00032871 -521.31125765 896.0469651 -520.73983002 878.08376312 C-520.64710681 875.18496123 -520.5523553 872.28623168 -520.45709229 869.38751221 C-519.32632906 834.88394318 -518.50273747 800.37557555 -517.85063744 765.85978031 C-517.7787646 762.07587862 -517.70415643 758.29203299 -517.62935257 754.50818825 C-517.5797074 751.92605358 -517.53474876 749.34386724 -517.49008179 746.76164246 C-517.09559614 725.6970898 -513.30788614 708.28149446 -498.06640625 692.76953125 C-493.7640891 688.74366822 -489.37078697 685.74375038 -484.1484375 683.0390625 C-483.23320312 682.53375 -482.31796875 682.0284375 -481.375 681.5078125 C-474.06184625 678.05277923 -467.40566876 677.58422563 -459.3984375 677.5390625 C-458.4280957 677.53269775 -457.45775391 677.52633301 -456.45800781 677.51977539 C-450.17802093 677.63088285 -444.95363057 678.65854661 -439.1484375 681.0390625 C-438.10816406 681.46445313 -437.06789063 681.88984375 -435.99609375 682.328125 C-428.5826722 685.88407194 -422.91604643 690.19897015 -417.1484375 696.0390625 C-416.30345703 696.85117188 -416.30345703 696.85117188 -415.44140625 697.6796875 C-402.75943529 710.93050676 -400.79742656 728.31393718 -400.78134155 745.67590332 C-400.73897647 761.02220476 -400.10457183 776.10265219 -397.8359375 791.2890625 C-397.6844223 792.3267981 -397.6844223 792.3267981 -397.52984619 793.38549805 C-396.03195101 803.4495662 -393.72542884 813.21229244 -391.1484375 823.0390625 C-390.71040996 824.80976542 -390.27277716 826.58056615 -389.8359375 828.3515625 C-380.44448694 861.9790145 -361.86347151 889.63695718 -335.1484375 912.0390625 C-334.3445459 912.71364502 -334.3445459 912.71364502 -333.52441406 913.40185547 C-318.45154221 925.99247233 -302.65096006 937.37893283 -286.02392578 947.82519531 C-284.36073666 948.90165669 -282.74802259 950.05522833 -281.14453125 951.21875 C-265.09583963 962.44191665 -243.16122808 965.81877804 -224.1484375 969.0390625 C-222.79153809 969.30275635 -222.79153809 969.30275635 -221.40722656 969.57177734 C-217.59189835 970.11886591 -213.84134859 970.20117995 -209.99609375 970.20703125 C-209.21890488 970.21035965 -208.441716 970.21368805 -207.64097595 970.21711731 C-205.99787991 970.22216287 -204.3547737 970.22452637 -202.71166992 970.22436523 C-200.24965507 970.22652848 -197.78810624 970.24464458 -195.32617188 970.26367188 C-181.66043294 970.31439033 -168.6043479 969.12271291 -155.3984375 965.3515625 C-154.46652588 965.08883545 -153.53461426 964.8261084 -152.57446289 964.55541992 C-121.19424222 955.50932591 -95.07175576 940.25357231 -71.1484375 918.0390625 C-70.25898437 917.23082031 -70.25898437 917.23082031 -69.3515625 916.40625 C-45.89603964 894.17934976 -27.40628403 858.9689176 -26.04150391 826.49462891 C-25.24170718 791.70667041 -34.27586112 762.73066078 -58.1484375 737.0390625 C-88.36835932 705.98612599 -133.94454185 689.46544486 -175.02539062 678.86889648 C-177.42182892 678.23213181 -179.80806912 677.57505932 -182.19335938 676.89868164 C-192.78240128 673.89731689 -203.39938886 671.21630464 -214.1484375 668.8515625 C-214.98640869 668.66574615 -215.82437988 668.47992981 -216.68774414 668.28848267 C-236.04136363 664.02601432 -255.56176142 660.72411888 -275.109375 657.48950195 C-312.34057463 651.30523734 -348.0304322 641.21943977 -379.1484375 619.0390625 C-380.02483887 618.41499512 -380.02483887 618.41499512 -380.91894531 617.77832031 C-403.37480102 601.56948571 -421.37277614 581.01586231 -435.1484375 557.0390625 C-435.50115723 556.42933594 -435.85387695 555.81960938 -436.21728516 555.19140625 C-443.19893892 542.99583991 -448.27716109 530.19630176 -453.1484375 517.0390625 C-453.49382568 516.12777588 -453.83921387 515.21648926 -454.19506836 514.27758789 C-474.38221696 460.30025825 -474.06548671 395.68911357 -468.1484375 339.0390625 C-468.05135498 338.10171265 -467.95427246 337.16436279 -467.85424805 336.1986084 C-467.02421708 328.22538453 -466.15850765 320.25635418 -465.2734375 312.2890625 C-465.15055359 311.18060974 -465.02766968 310.07215698 -464.90106201 308.93011475 C-463.40856747 295.59955414 -461.65562665 282.33916039 -459.5532074 269.09063721 C-458.62793512 263.24697102 -457.79985646 257.41724093 -457.12890625 251.5390625 C-456.09460274 242.92174641 -454.32807321 234.50721302 -452.4609375 226.0390625 C-452.2851416 225.23435516 -452.1093457 224.42964783 -451.92822266 223.60055542 C-448.92346037 209.89505297 -445.53765731 196.37553806 -441.1484375 183.0390625 C-440.85001953 182.12737305 -440.55160156 181.21568359 -440.24414062 180.27636719 C-424.97616656 134.39174745 -398.19557015 92.52145312 -354.1484375 70.0390625 C-342.53954002 64.2318861 -330.84030907 59.79254501 -318.1484375 57.0390625 C-317.25318359 56.84296387 -316.35792969 56.64686523 -315.43554688 56.44482422 C-279.44018434 48.94272327 -241.25217916 51.05029719 -207.1484375 65.0390625 C-206.34422363 65.36358398 -205.54000977 65.68810547 -204.71142578 66.02246094 C-178.09579738 76.91330829 -154.68005568 93.14840759 -133.1484375 112.0390625 C-132.45105469 112.6371875 -131.75367188 113.2353125 -131.03515625 113.8515625 C-97.23679467 142.96153852 -97.23679467 142.96153852 -92.1484375 154.0390625 C-91.4884375 154.0390625 -90.8284375 154.0390625 -90.1484375 154.0390625 C-90.15629272 152.26982422 -90.15629272 152.26982422 -90.16430664 150.46484375 C-90.22581687 134.98939848 -90.20929924 119.51448996 -90.1484375 104.0390625 C-90.14589714 103.35644096 -90.14335678 102.67381943 -90.14073944 101.97051239 C-90.10798801 93.35244352 -90.05573333 84.73487962 -89.96292591 76.11723137 C-89.92497731 72.58635538 -89.89314498 69.05571092 -89.87771606 65.5246582 C-89.85974666 61.53294403 -89.80999396 57.54219561 -89.7578125 53.55078125 C-89.75657883 52.3765007 -89.75534515 51.20222015 -89.7540741 49.99235535 C-89.45639779 33.07042675 -82.83874454 18.17218421 -71.1484375 6.0390625 C-50.71332737 -12.1662497 -23.30988563 -14.45335916 0 0 Z " fill="#FEFEFE" transform="translate(944.1484375,444.9609375)"/>
</svg>
